<svg xmlns="http://www.w3.org/2000/svg" xmlns:xlink="http://www.w3.org/1999/xlink" version="1.1" x="0px" y="0px" viewBox="0 0 94.596 125" enable-background="new 0 0 94.596 100" xml:space="preserve"><path d="M60.701,24.011c-1.731-1.751-3.814-2.656-6.354-2.656h-6.82v0.208v33.841v31.4v1.253c0.088,0.706,0.345,1.31,0.818,1.767  c0.631,0.605,1.359,0.892,2.362,0.892c0.171,0,0.33-0.021,0.49-0.039c0.171,0.016,0.335,0.039,0.516,0.039  c1.041,0,1.946-0.345,2.773-1.165c0.762-0.748,1.118-1.705,1.118-2.746V63.132V37.918v-5.275h0.073h1.574v5.299v5.549V52.2  c0,0.819,0.267,1.569,0.812,2.161c0.646,0.593,1.406,0.859,2.228,0.859c0.147,0,0.28-0.019,0.417-0.031  c0.751-0.071,1.354-0.328,1.816-0.828c0.494-0.592,0.812-1.342,0.812-2.161v-0.016v-13.1v-8.758  C63.338,27.963,62.479,25.834,60.701,24.011z"/><path d="M39.983,21.563c-1.674,0-3.27,0.612-4.812,1.966c-1.549,1.301-2.545,2.805-3.001,4.459c-0.774,2.162-1.405,4.401-2.09,6.725  c-0.443,1.513-0.868,2.953-1.275,4.332c-0.216,0.729-0.428,1.445-0.633,2.134c-0.593,1.96-1.088,3.646-1.451,5.007  c-0.32,1.367-0.594,2.175-0.685,2.409c-0.137,0.274-0.183,0.547-0.183,0.879c0,1.21,0.638,2.07,1.96,2.55l0.723,0.177  c0.094,0,0.18-0.011,0.269-0.017c1.255-0.082,2.07-0.73,2.452-2.001c0.053-0.449,0.501-1.758,1.186-3.815  c0.592-2.09,1.276-4.251,1.901-6.543c0.173-0.579,0.357-1.196,0.555-1.853c0.463-1.544,0.993-3.316,1.581-5.328  c0.152-0.521,0.308-1.053,0.468-1.608h1.634l-2.093,7.071l-1.59,5.372l-3.465,11.706l-2.352,7.947h7.406h1.722v24.375  c0,0.95,0.319,1.744,0.996,2.317c0.528,0.5,1.185,0.771,1.935,0.854c0.158,0.018,0.314,0.038,0.481,0.038  c0.95,0,1.726-0.286,2.317-0.892c0.423-0.409,0.696-0.936,0.822-1.546v-1.474v-31.4V21.563H39.983z"/><path d="M40.659,7.682c-1.354,1.354-1.992,2.995-1.992,4.909c0,2.012,0.639,3.678,1.992,5.02c1.089,1.122,2.478,1.737,4.102,1.895  V5.642C43.137,5.817,41.747,6.494,40.659,7.682z"/><path d="M53.613,12.591c0-1.914-0.689-3.555-2.044-4.909c-1.14-1.167-2.507-1.839-4.042-2.029v13.842  c1.535-0.171,2.902-0.782,4.042-1.885C52.922,16.27,53.613,14.603,53.613,12.591z"/><text x="0" y="115" fill="#000000" font-size="5px" font-weight="bold" font-family="'Helvetica Neue', Helvetica, Arial-Unicode, Arial, Sans-serif">Created by Andrew J. Young</text><text x="0" y="120" fill="#000000" font-size="5px" font-weight="bold" font-family="'Helvetica Neue', Helvetica, Arial-Unicode, Arial, Sans-serif">from the Noun Project</text></svg>